<svg width="200" height="200" viewBox="0 0 200 200" xmlns="http://www.w3.org/2000/svg">
  <defs>
    <linearGradient id="bg" x1="0" y1="0" x2="1" y2="1">
      <stop offset="0%" stop-color="#ffe8f1"/>
      <stop offset="100%" stop-color="#d7f5ff"/>
    </linearGradient>
  </defs>
  <rect width="200" height="200" rx="100" fill="url(#bg)"/>
  <circle cx="100" cy="108" r="54" fill="#ffd8bf"/>
  <path d="M47 104c6-40 27-61 53-61 32 0 52 22 56 58-9-4-18-3-26 2-9-8-19-11-30-11-15 0-28 5-39 12-4-2-9-2-14 0z" fill="#2f2a4a"/>
  <ellipse cx="80" cy="110" rx="6" ry="7" fill="#2f2a4a"/>
  <ellipse cx="119" cy="110" rx="6" ry="7" fill="#2f2a4a"/>
  <path d="M86 129c9 7 19 7 28 0" stroke="#d4688f" stroke-width="4" stroke-linecap="round" fill="none"/>
  <circle cx="71" cy="123" r="6" fill="#ffb6c8" opacity="0.6"/>
  <circle cx="129" cy="123" r="6" fill="#ffb6c8" opacity="0.6"/>
</svg>
